# xmcd
#
# Track frame offsets:
#	150
#	16845
#	32417
#	52624
#	66087
#	86442
#	101255
#	116503
#	131662
#	149566
#	166480
#	180427
#	196692
#	218458
#	230849
#	247449
#	267167
#	285077
#	294073
#
# Disc length: 4109 seconds
#
# Revision: 2
# Processed by: cddbd v1.5.2PL0 Copyright (c) Steve Scherf et al.
# Submitted via: audiograbber 1.83.01
#
DISCID=fa100b13
DTITLE=Various Artist - Hc131
DYEAR=2007
DGENRE=Country
TTITLE0=Beer In Mexico - Kenny Chestney
TTITLE1=Our Country (Country Edit) - John Mellancamp
TTITLE2=Married Again - Jim Cuddy
TTITLE3=Happy Man - George Canyon
TTITLE4=Wasted - Carrie Underwood
TTITLE5=What I Can't Forget - Jason Blaine
TTITLE6=Settlin' - Sugarland
TTITLE7=Any More Beautiful - After Tuesday
TTITLE8=Missing You - John Waite &alison Krauss
TTITLE9=Lips Of An Angel - Jack Ingram
TTITLE10=Holding On - Ennis Sisters
TTITLE11=Cactus Flower - Megan Morrison
TTITLE12=Hallelujah - Willie Nelson
TTITLE13=Spoken Like A Man - Blaine Larsen
TTITLE14=Innocence - Sarah Buxton
TTITLE15=One Kiss - Prairie Oyster
TTITLE16=Some People Change - George Canyon
TTITLE17=Travelin' Band - Jerry Lee Lewis Ft John Fogerty
TTITLE18=Let's Go To Vegas - Faith Hill
EXTD=
EXTT0=
EXTT1=
EXTT2=
EXTT3=
EXTT4=
EXTT5=
EXTT6=
EXTT7=
EXTT8=
EXTT9=
EXTT10=
EXTT11=
EXTT12=
EXTT13=
EXTT14=
EXTT15=
EXTT16=
EXTT17=
EXTT18=
PLAYORDER=
